<svg width="528" height="246" viewBox="0 0 528 246" fill="none" xmlns="http://www.w3.org/2000/svg">
<path d="M48 138C37.728 135.199 31.1386 123.303 27.2222 114.111C21.0609 99.6508 19.6414 83.1966 21.1111 67.6667C22.9478 48.2594 28.2285 23.799 43.4445 9.99999C60.1542 -5.1538 87.6005 3.61098 99.8889 19.2222C109.153 30.9908 114.905 44.2066 117.778 58.8889C121.417 77.4898 123.735 98.2906 119.444 117C112.778 146.071 88.7359 165.235 59.7778 169.333C40.0836 172.121 20.9916 164.626 9.66667 147.889C0.164532 133.845 -1.21969 114.479 12.2222 102.667C25.9305 90.62 45.252 94.4626 60.6667 101.111C74.6358 107.136 86.6166 116.542 98.8889 125.333C112.152 134.835 125.941 147.02 141.333 153C159.871 160.203 176.612 154.821 185 136.889C190.555 125.013 190.772 106.995 179.778 97.6667C171.832 90.9252 160.622 96.9632 154.778 103.444C147.557 111.452 139.58 125.783 142.444 137.111C145.212 148.056 160.144 129.682 162.222 126.778C165.082 122.781 167.981 118.818 170.778 114.778C173.046 111.502 174.245 109.835 176.222 114.333C184.497 133.154 199.952 144.111 221 135.444C233.212 130.416 245.369 121.249 253.056 110.444C255.361 107.203 257.523 102.144 252 101.278C238.335 99.1343 226.763 111.854 223.611 123.778C221.182 132.965 219.63 158.165 235.611 155.333C242.726 154.072 247.509 148.306 252.167 143.333C261.358 133.521 271.768 125.994 283.444 119.278C295.982 112.066 309.75 104.679 324.667 105.444C326.774 105.553 336.061 106.033 335.556 110.333C334.26 121.346 321.037 128.38 317.444 138.389C316.055 142.26 320.263 145.591 322.444 148.111C328.193 154.752 333.697 161.979 336.944 170.222C341.678 182.239 334.518 195.982 328.667 206.222C319.296 222.621 306.896 236.669 288.278 242.056C285.382 242.893 272.124 246.445 269.611 241.778C267.93 238.656 274.001 231.018 275.278 229.111C285.974 213.143 297.298 197.51 308.333 181.778C327.726 154.131 347.28 125.117 372.556 102.389C379.669 95.993 392.856 84.6 403.833 89.2222C406.865 90.4987 409.297 93.3817 408.278 96.7778C405.869 104.807 399.583 112.299 394.444 118.722C392.984 120.548 386.505 125.662 388.778 128.722C396.028 138.482 408.371 139.944 407.944 154.722C407.47 171.16 395.94 188.462 387.278 201.5C380.676 211.437 368.212 231.946 354.611 234.667C350.654 235.458 355.325 226.424 357.167 222.833C366.546 204.552 382.196 189.002 396.222 174.389C434.584 134.423 477.711 101.827 526 75" stroke="white" stroke-width="3" stroke-linecap="round"/>
</svg>
